<svg width="20" height="21" viewBox="0 0 20 21" fill="none" xmlns="http://www.w3.org/2000/svg">
<path d="M17.9441 6.65538C17.9568 6.83304 17.9568 7.01073 17.9568 7.18839C17.9568 12.6071 13.8325 18.8508 6.29441 18.8508C3.97207 18.8508 1.81473 18.1782 0 17.0107C0.329961 17.0488 0.647187 17.0615 0.989844 17.0615C2.90605 17.0615 4.67004 16.4143 6.07867 15.3102C4.27664 15.2721 2.76648 14.0919 2.24617 12.4676C2.5 12.5056 2.75379 12.531 3.02031 12.531C3.38832 12.531 3.75637 12.4802 4.09898 12.3914C2.22082 12.0107 0.812148 10.361 0.812148 8.36858V8.31784C1.35781 8.62241 1.99238 8.81276 2.66492 8.83811C1.56086 8.10206 0.837539 6.84573 0.837539 5.4244C0.837539 4.663 1.04055 3.96503 1.3959 3.35589C3.41367 5.84319 6.44668 7.46753 9.84766 7.64522C9.78422 7.34065 9.74613 7.02343 9.74613 6.70616C9.74613 4.44726 11.5736 2.60718 13.8451 2.60718C15.0253 2.60718 16.0913 3.1021 16.84 3.90159C17.7664 3.72394 18.6547 3.38128 19.4416 2.91175C19.137 3.86354 18.4898 4.66304 17.6395 5.17062C18.4644 5.08183 19.2639 4.85335 19.9999 4.53612C19.4416 5.34827 18.7436 6.07159 17.9441 6.65538Z" fill="white"/>
</svg>
