<svg width="60" height="40" viewBox="0 0 60 40" fill="none" xmlns="http://www.w3.org/2000/svg">
<rect x="0.5" y="0.5" width="59" height="39" rx="7.5" fill="white" fill-opacity="0.2"/>
<rect x="0.5" y="0.5" width="59" height="39" rx="7.5" stroke="#CCCCCC"/>
<path d="M53.249 17.2513L53.26 17.2391H51.5129L50.4097 21.0635H50.3511L49.0844 17.2391H47.0082L49.5063 23.5506L48.4627 25.4744V25.5208H50.0927L53.249 17.2513Z" fill="black"/>
<path d="M33.8806 17.2391H32.0274V23.5274H33.8806V17.2391Z" fill="black"/>
<path d="M46.6438 21.9548V19.3275C46.6438 17.8962 45.7989 17.1099 44.3091 17.1099C43.3583 17.1099 42.7023 17.2744 41.5051 17.6378L41.8331 19.0812C42.9243 18.5886 43.4047 18.3777 43.9093 18.3777C44.519 18.3777 44.7895 18.8117 44.7895 19.481V19.5274C42.6658 19.926 42.0087 20.1491 41.599 20.5599C41.2942 20.8647 41.165 21.2988 41.165 21.8035C41.165 23.0116 42.1037 23.6566 42.9828 23.6566C43.6399 23.6566 44.1678 23.4103 44.8834 22.8703L45.0126 23.5274H46.8657L46.6438 21.9548ZM44.7906 22.0022C44.2981 22.2717 44.0165 22.3777 43.6885 22.3777C43.2423 22.3777 42.9607 22.084 42.9607 21.6157C42.9607 21.4401 42.996 21.2634 43.1363 21.1232C43.3594 20.9001 43.7934 20.7355 44.7906 20.5014V22.0022Z" fill="black"/>
<path d="M38.4913 17.1099C37.811 17.1099 37.2831 17.3683 36.6846 17.8609V17.2391H34.8314V25.5208H36.6846V23.4677C37.0368 23.5616 37.3648 23.6091 37.7635 23.6091C39.4179 23.6091 40.9077 22.3888 40.9077 20.2187C40.9077 18.2717 39.8287 17.1099 38.4913 17.1099ZM37.3174 22.4473C37.1064 22.4473 36.9065 22.4241 36.6834 22.3534V18.952C37.0711 18.6825 37.3869 18.5533 37.7856 18.5533C38.478 18.5533 39.0291 19.1044 39.0291 20.2783C39.0302 21.7792 38.2207 22.4473 37.3174 22.4473Z" fill="black"/>
<path d="M16.3189 14H8.37301C7.33822 14 6.5 14.8459 6.5 15.8885V23.9018C6.5 24.9443 7.33822 25.7902 8.37301 25.7902H16.3189C17.3537 25.7902 18.1908 24.9443 18.1908 23.9018V15.8885C18.1919 14.8448 17.3537 14 16.3189 14Z" fill="#1677FF"/>
<path d="M16.1257 21.4037C15.6585 21.2457 15.0301 21.0039 14.3311 20.7488C14.7507 20.0122 15.0865 19.174 15.3073 18.2629H13.0025V17.4257H15.8253V16.9586H13.0025V15.5627H11.8507C11.6486 15.5627 11.6486 15.7637 11.6486 15.7637V16.9575H8.79377V17.4246H11.6486V18.2617H9.29074V18.7289H13.8628C13.6961 19.3098 13.4708 19.8565 13.2046 20.3523C11.7215 19.8587 10.1378 19.4589 9.14386 19.7052C8.50774 19.8631 8.09802 20.1447 7.85727 20.4407C6.7529 21.7957 7.54473 23.8543 9.87716 23.8543C11.2565 23.8543 12.5851 23.079 13.6143 21.8012C15.1505 22.5456 18.1908 23.8244 18.1908 23.8244V22.0022C18.1919 22.0022 17.8098 21.9713 16.1257 21.4037ZM9.6596 23.0668C7.8407 23.0668 7.30288 21.6223 8.20183 20.8316C8.50222 20.5644 9.04999 20.434 9.34154 20.4053C10.4216 20.2982 11.4222 20.7134 12.6027 21.2943C11.7734 22.3855 10.7165 23.0668 9.6596 23.0668Z" fill="white"/>
<path d="M25.6574 15.2568H23.1704L20.3907 23.5274H22.1036L22.573 21.9084H25.5172L25.9634 23.5274H28.1566L25.6574 15.2568ZM22.9595 20.5588L24.0616 16.7466H24.108L25.1516 20.5588H22.9595Z" fill="black"/>
<path d="M30.7596 14.963H28.9065V23.5263H30.7596V14.963Z" fill="black"/>
<path d="M31.8861 15.7261C31.8861 16.3357 32.3322 16.7466 32.954 16.7466C33.5758 16.7466 34.0219 16.3357 34.0219 15.7261C34.0219 15.1276 33.5758 14.7057 32.954 14.7057C32.3322 14.7057 31.8861 15.1276 31.8861 15.7261Z" fill="#1677FF"/>
</svg>
