<svg width="60" height="40" viewBox="0 0 60 40" fill="none" xmlns="http://www.w3.org/2000/svg">
<path fill-rule="evenodd" clip-rule="evenodd" d="M51.3174 16.1851C53.1319 16.1851 54.1299 16.9926 54.1299 18.518C54.2206 19.6844 53.4041 20.6713 52.3154 20.8508L54.765 24.1706H52.8597L50.773 20.9405H50.5915V24.1706H49.0492V16.1851H51.3174ZM50.5915 19.8638H51.0452C52.0432 19.8638 52.4968 19.4152 52.4968 18.6077C52.4968 17.8899 52.0432 17.4413 51.0452 17.4413H50.5915V19.8638ZM43.6963 24.1706H48.0512V22.8247H45.2386V20.6713H47.9604V19.3255H45.2386V17.531H48.0512V16.1851H43.6963V24.1706ZM39.1599 21.5686L37.0731 16.1851H35.4401L38.797 24.35H39.6135L42.9704 16.1851H41.3373L39.1599 21.5686ZM20.7422 20.2227C20.7422 22.4658 22.5568 24.35 24.8249 24.35C25.5508 24.35 26.1859 24.1706 26.821 23.9014V22.1069C26.3673 22.6453 25.7322 23.0041 25.0064 23.0041C23.5548 23.0041 22.3753 21.9275 22.3753 20.4919V20.3124C22.2846 18.8768 23.464 17.6207 24.9157 17.531C25.6415 17.531 26.3673 17.8899 26.821 18.4282V16.6337C26.2766 16.2748 25.5508 16.1851 24.9157 16.1851C22.5568 16.0057 20.7422 17.8899 20.7422 20.2227ZM17.9297 19.2357C17.0224 18.8768 16.7502 18.6974 16.7502 18.2488C16.8409 17.7104 17.2946 17.2618 17.8389 17.3515C18.2926 17.3515 18.7462 17.6207 19.1091 17.9796L19.9257 16.9029C19.2906 16.3646 18.474 16.0057 17.6575 16.0057C16.3873 15.9159 15.2986 16.9029 15.2078 18.159V18.2488C15.2078 19.3255 15.6615 19.9535 17.1131 20.4021C17.476 20.4919 17.8389 20.6713 18.2018 20.8508C18.474 21.0302 18.6555 21.2994 18.6555 21.6583C18.6555 22.2864 18.1111 22.8247 17.5667 22.8247H17.476C16.7502 22.8247 16.1151 22.3761 15.8429 21.748L14.8449 22.735C15.3893 23.7219 16.478 24.2603 17.5667 24.2603C19.0184 24.35 20.1978 23.2733 20.2886 21.8377V21.5686C20.1978 20.4919 19.7442 19.9535 17.9297 19.2357ZM12.6675 24.1706H14.2098V16.1851H12.6675V24.1706ZM5.5 16.1851H8.22182C10.3993 16.2749 12.1231 18.0693 12.0324 20.2227C12.0324 21.3891 11.488 22.4658 10.5807 23.2733C9.76419 23.9014 8.76619 24.2603 7.76819 24.1706H5.5V16.1851ZM7.49599 22.8247C8.22181 22.9144 9.03836 22.6453 9.58272 22.1966C10.1271 21.6583 10.3993 20.9405 10.3993 20.133C10.3993 19.4152 10.1271 18.6974 9.58272 18.1591C9.03836 17.7104 8.22181 17.4413 7.49599 17.531H7.04235V22.8247H7.49599Z" fill="white"/>
<path fill-rule="evenodd" clip-rule="evenodd" d="M31.4481 16C29.1799 16 27.2746 17.7945 27.2746 20.1273C27.2746 22.3704 29.0891 24.2546 31.4481 24.3443C33.807 24.4341 35.6215 22.5499 35.7122 20.217C35.6215 17.8842 33.807 16 31.4481 16Z" fill="#FD6020"/>
</svg>
