<svg width="60" height="40" viewBox="0 0 60 40" fill="none" xmlns="http://www.w3.org/2000/svg">
<rect x="0.5" y="0.5" width="59" height="39" rx="7.5" fill="white" fill-opacity="0.2"/>
<rect x="0.5" y="0.5" width="59" height="39" rx="7.5" stroke="#CCCCCC"/>
<path fill-rule="evenodd" clip-rule="evenodd" d="M43.9216 31.635C43.9216 32.2405 43.6811 32.8212 43.2529 33.2493C42.8248 33.6775 42.2441 33.918 41.6386 33.918H18.7856C18.4855 33.9183 18.1884 33.8595 17.9111 33.745C17.6338 33.6304 17.3819 33.4623 17.1696 33.2502C16.9573 33.0382 16.7889 32.7864 16.674 32.5093C16.5591 32.2321 16.5 31.935 16.5 31.635V8.78297C16.5 8.48295 16.5591 8.18587 16.674 7.90872C16.7889 7.63157 16.9573 7.37978 17.1696 7.16775C17.3819 6.95572 17.6338 6.78761 17.9111 6.67304C18.1884 6.55846 18.4855 6.49966 18.7856 6.5H41.6371C42.2426 6.5 42.8233 6.74053 43.2514 7.16867C43.6795 7.59681 43.9201 8.17749 43.9201 8.78297L43.9216 31.635Z" fill="#EDAA00"/>
<path d="M31.8265 20.3367V15.4267L33.1085 15.1232V15.7661C33.1085 15.7661 33.4401 14.9198 34.2101 14.7232C34.4472 14.6635 34.5665 14.6993 34.5665 14.6993V15.9518C34.3358 15.955 34.1079 16.0025 33.8951 16.0919C33.4199 16.2792 33.1812 16.6891 33.1812 17.3117V20.0228L31.8265 20.3367ZM25.0704 21.9332C25.0704 21.9332 24.8629 21.6219 24.8629 20.5157V18.0714L24.2029 18.227V17.2209L24.8634 17.0653V15.9674L26.2264 15.6457V16.741L27.1894 16.5127V17.5193L26.2264 17.7481V20.2386C26.2264 21.3702 26.5268 21.5876 26.5268 21.5876L25.0704 21.9332ZM27.3316 19.0126C27.3316 18.1393 27.4561 17.5027 27.7228 17.0139C28.0398 16.4338 28.5613 16.0561 29.3199 15.8833C30.8147 15.5435 31.3538 16.4286 31.3325 17.6148C31.3258 18.0387 31.3273 18.2457 31.3273 18.2457L28.6936 18.8647V18.9072C28.6936 19.7374 28.8679 20.1302 29.393 20.0181C29.8465 19.9226 29.9726 19.6383 30.0084 19.2876C30.0146 19.23 30.0167 19.0862 30.0167 19.0862L31.251 18.7905C31.251 18.7905 31.2542 18.8917 31.251 19.0043C31.2396 19.4759 31.1026 20.6454 29.3878 21.0501C27.7638 21.4356 27.33 20.4436 27.33 19.0126H27.3316ZM29.3728 16.7976C28.9364 16.8967 28.7076 17.3247 28.6983 18.034L30.0234 17.7185C30.026 17.6864 30.026 17.6148 30.026 17.5048C30.0234 16.9698 29.8579 16.6876 29.3733 16.7976H29.3728ZM39.1771 16.1412C39.1252 14.6459 39.5133 13.4587 41.1815 13.0799C42.2462 12.8382 42.6493 13.1142 42.8537 13.3814C43.0504 13.6367 43.1261 13.9807 43.1261 14.4627V14.5519L41.8196 14.8633V14.6811C41.8196 14.1104 41.664 13.8925 41.2489 13.9962C40.7555 14.1202 40.5562 14.5883 40.5562 15.5201V15.9544C40.5562 16.9013 40.6859 17.3351 41.2541 17.2158C41.748 17.112 41.8155 16.6803 41.8248 16.3005C41.8248 16.2408 41.8285 16.0499 41.8285 16.0499L43.1329 15.7427V15.9456C43.1292 17.1867 42.475 17.9691 41.2484 18.2545C39.5605 18.6509 39.2295 17.6739 39.1776 16.1412H39.1771ZM34.6646 18.2343C34.6646 17.0969 35.3319 16.7374 36.3348 16.3228C37.2361 15.9497 37.2553 15.7645 37.2594 15.4407C37.2641 15.1683 37.138 14.9343 36.6887 15.049C36.2762 15.1528 36.1667 15.4527 36.1449 15.6913C36.1373 15.7752 36.1346 15.8594 36.1366 15.9435L34.8721 16.2419C34.8636 15.9898 34.893 15.738 34.9593 15.4947C35.1617 14.8145 35.762 14.3568 36.7966 14.1177C38.1415 13.8063 38.5903 14.3978 38.5924 15.3162V17.4907C38.5924 18.5425 38.7874 18.6961 38.7874 18.6961L37.5458 18.9902C37.4772 18.8467 37.4213 18.6974 37.3787 18.544C37.3787 18.544 37.1074 19.2284 36.1703 19.4494C35.1845 19.6808 34.6656 19.0717 34.6656 18.2348L34.6646 18.2343ZM37.2521 16.6818C37.0428 16.8286 36.8217 16.9579 36.5911 17.0684C36.176 17.2713 35.9898 17.5203 35.9898 17.9043C35.9898 18.2369 36.1973 18.4558 36.5709 18.3624C36.973 18.2618 37.2521 17.8866 37.2521 17.3662V16.6818ZM17.9455 25.3748C17.8038 25.3745 17.6648 25.336 17.5431 25.2634C17.4214 25.1908 17.3216 25.0867 17.2541 24.9621C17.1866 24.8375 17.1539 24.697 17.1596 24.5554C17.1652 24.4139 17.2088 24.2764 17.286 24.1575L17.2943 24.1467L17.3093 24.143L19.1617 23.7056V25.1133L19.1326 25.12C18.7123 25.2212 18.2101 25.3359 18.1063 25.3571C18.0532 25.369 17.9989 25.375 17.9444 25.3748H17.9455ZM17.9455 27.1757C17.7373 27.1757 17.5376 27.0932 17.3902 26.9463C17.2427 26.7993 17.1596 26.5999 17.1589 26.3918C17.158 26.2398 17.2023 26.091 17.286 25.9642L17.2943 25.9502L17.3093 25.9471L19.1617 25.5097V26.9174L19.1326 26.9251C18.7123 27.0258 18.2101 27.1425 18.1063 27.1628C18.053 27.1732 17.9988 27.1784 17.9444 27.1783L17.9455 27.1757ZM17.9455 28.9798C17.7368 28.9797 17.5367 28.8967 17.3892 28.7491C17.2417 28.6015 17.1589 28.4014 17.1589 28.1927C17.158 28.0408 17.2023 27.892 17.286 27.7652L17.2943 27.7506L19.1622 27.3106V28.7183L19.1331 28.7256C18.6895 28.8325 18.1961 28.944 18.1068 28.9642C18.0535 28.9744 17.9993 28.9796 17.9449 28.9798" fill="#231F20"/>
<path d="M17.7275 23.6496L17.727 15.7738L19.1627 15.4345V23.3097L17.7275 23.6496Z" fill="#231F20"/>
<path d="M21.304 22.9797C21.2984 22.7485 21.2026 22.5286 21.0371 22.367C20.8715 22.2054 20.6494 22.115 20.4181 22.115C20.1867 22.115 19.9646 22.2054 19.7991 22.367C19.6335 22.5286 19.5377 22.7485 19.5321 22.9797V30.3413C19.5332 30.977 19.7862 31.5864 20.2357 32.036C20.6852 32.4856 21.2945 32.7387 21.9303 32.74C22.6006 32.74 24.4374 32.7368 24.4374 32.7368V26.2413C24.4377 26.0503 24.3909 25.8623 24.301 25.6938C24.2111 25.5253 24.081 25.3817 23.9222 25.2757L21.6869 23.7575V27.2048C21.6883 27.2306 21.6844 27.2564 21.6754 27.2806C21.6665 27.3049 21.6527 27.3271 21.6349 27.3458C21.6171 27.3646 21.5957 27.3795 21.5719 27.3897C21.5482 27.3999 21.5226 27.4051 21.4968 27.4051C21.4709 27.4051 21.4454 27.3999 21.4216 27.3897C21.3979 27.3795 21.3764 27.3646 21.3587 27.3458C21.3409 27.3271 21.3271 27.3049 21.3181 27.2806C21.3092 27.2564 21.3053 27.2306 21.3066 27.2048C21.3066 27.1679 21.3019 23.4348 21.3019 22.9797H21.304ZM22.5005 17.4876C22.2291 17.5504 21.9743 17.6709 21.7537 17.841C21.5331 18.0112 21.3517 18.2269 21.222 18.4735V17.9219L19.9296 18.228V21.763C20.1563 21.6736 20.4033 21.6485 20.6433 21.6905C20.8834 21.7325 21.1072 21.84 21.29 22.0012V19.7182C21.29 19.1718 21.5629 18.735 21.951 18.6493C22.2442 18.585 22.488 18.6898 22.488 19.2102V22.5408L23.849 22.2212V18.6986C23.849 17.8441 23.5211 17.2458 22.5 17.4876H22.5005ZM42.2871 12.4469C42.1206 12.447 41.9577 12.3977 41.8192 12.3053C41.6807 12.2128 41.5726 12.0814 41.5088 11.9276C41.445 11.7737 41.4282 11.6044 41.4606 11.441C41.493 11.2777 41.5731 11.1276 41.6908 11.0097C41.8085 10.8919 41.9585 10.8116 42.1218 10.779C42.2852 10.7464 42.4545 10.763 42.6084 10.8266C42.7623 10.8903 42.8939 10.9981 42.9865 11.1365C43.0791 11.275 43.1286 11.4377 43.1287 11.6043C43.1283 11.8273 43.0395 12.0411 42.8817 12.1988C42.724 12.3564 42.5102 12.4451 42.2871 12.4454V12.4469ZM42.2871 10.8675C42.1415 10.8675 41.9992 10.9107 41.8781 10.9916C41.7571 11.0724 41.6627 11.1874 41.607 11.3219C41.5512 11.4564 41.5366 11.6044 41.565 11.7472C41.5933 11.89 41.6634 12.0212 41.7663 12.1242C41.8692 12.2272 42.0004 12.2974 42.1432 12.3258C42.286 12.3543 42.434 12.3398 42.5685 12.2841C42.7031 12.2285 42.8181 12.1342 42.8991 12.0132C42.98 11.8922 43.0233 11.7499 43.0234 11.6043C43.0231 11.4091 42.9455 11.2219 42.8075 11.0838C42.6695 10.9457 42.4824 10.8679 42.2871 10.8675Z" fill="#231F20"/>
<path d="M41.9805 11.1036H42.3437C42.4885 11.1036 42.6031 11.1757 42.6031 11.3672C42.6031 11.5005 42.544 11.6033 42.4319 11.6209C42.5357 11.6313 42.5876 11.6873 42.5922 11.8321C42.5922 11.8969 42.5953 11.9779 42.5985 12.0396C42.5984 12.0573 42.6029 12.0746 42.6114 12.0901C42.62 12.1055 42.6323 12.1185 42.6472 12.1278H42.4625C42.4439 12.1012 42.4341 12.0695 42.4345 12.037C42.4283 11.9753 42.4293 11.9177 42.4272 11.843C42.4272 11.7309 42.3904 11.6816 42.2773 11.6816H42.1471V12.1278H41.9826L41.9805 11.1036ZM42.2757 11.5612C42.298 11.5633 42.3205 11.5604 42.3416 11.5527C42.3626 11.545 42.3817 11.5326 42.3974 11.5167C42.4131 11.5007 42.425 11.4814 42.4324 11.4602C42.4397 11.439 42.4422 11.4164 42.4397 11.3942C42.4397 11.2847 42.393 11.2276 42.284 11.2276H42.1471V11.5612H42.2757Z" fill="#231F20"/>
</svg>
