<svg width="60" height="40" viewBox="0 0 60 40" fill="none" xmlns="http://www.w3.org/2000/svg">
<rect x="0.5" y="0.5" width="59" height="39" rx="7.5" fill="white" fill-opacity="0.2"/>
<rect x="0.5" y="0.5" width="59" height="39" rx="7.5" stroke="#CCCCCC"/>
<path fill-rule="evenodd" clip-rule="evenodd" d="M46.4175 18.266C46.069 18.4202 45.7205 18.5359 45.372 18.613L44.7525 18.7673C44.4427 18.8444 44.2104 18.9601 44.0555 19.1144C43.9394 19.3072 43.8619 19.5 43.8619 19.6928C43.8619 19.9242 43.9394 20.1556 44.0942 20.3484C44.2491 20.5027 44.4815 20.5798 44.7912 20.5798C45.2946 20.5798 45.6818 20.4255 45.9528 20.1556C46.2239 19.8856 46.3788 19.4614 46.3788 18.9601L46.4175 18.266ZM46.8434 21.5824C46.4562 21.7753 46.069 21.891 45.6431 21.9295C45.2946 21.9681 44.9074 22.0067 44.5202 22.0067C43.9006 22.0067 43.3198 21.8138 42.8552 21.4668C42.3905 21.1197 42.1195 20.5412 42.1195 19.7314C42.1195 18.9601 42.3518 18.4202 42.7778 18.1117C43.2037 17.8032 43.7845 17.5718 44.4427 17.4561C44.5589 17.4561 44.6751 17.4561 44.7525 17.4176C44.9074 17.379 45.0235 17.379 45.1784 17.3404C45.9528 17.2247 46.34 16.9934 46.34 16.6463C46.34 16.3763 46.1852 16.1835 45.9141 16.1064C45.6818 16.0293 45.4107 15.9907 45.1397 15.9907C44.9074 15.9907 44.6751 16.0293 44.4815 16.1064C44.2878 16.1835 44.133 16.3378 44.0555 16.5306H42.2744C42.3518 15.9907 42.5841 15.4894 43.0101 15.1423C43.4747 14.7181 44.1717 14.5253 45.0623 14.5253C46.069 14.5253 46.8047 14.6795 47.3081 15.0266C47.8114 15.3737 48.0825 15.875 48.0825 16.5306V18.9987C48.0825 19.7314 47.9663 20.2713 47.6953 20.6955C47.5404 21.0811 47.2306 21.3896 46.8434 21.5824ZM38.1313 21.891V18.4202C38.1313 17.7261 38.2474 17.109 38.441 16.6463C38.6347 16.1835 38.9057 15.7979 39.2929 15.4894C39.6414 15.2194 40.0286 15.0266 40.4932 14.9109C40.9579 14.7952 41.4225 14.7181 41.8872 14.7181H42.1195V16.6463H41.5C40.9966 16.6463 40.6094 16.762 40.3384 17.0319C40.106 17.3019 39.9511 17.6875 39.9511 18.2274V21.9295L38.1313 21.891ZM36.1178 18.266C35.7693 18.4202 35.4208 18.5359 35.0724 18.613L34.4528 18.7673C34.1431 18.8444 33.9107 18.9601 33.7559 19.1144C33.6397 19.3072 33.5623 19.5 33.5623 19.6928C33.5623 19.9242 33.6397 20.1556 33.7946 20.3484C33.9495 20.5027 34.1818 20.5798 34.4916 20.5798C34.9949 20.5798 35.3821 20.4255 35.6532 20.1556C35.9242 19.8856 36.0791 19.4614 36.0791 18.9601L36.1178 18.266ZM36.5437 21.5824C36.1565 21.7753 35.7693 21.891 35.3434 21.9295C34.9949 21.9681 34.6077 22.0067 34.2205 22.0067C33.601 22.0067 33.0202 21.8138 32.5555 21.4668C32.0909 21.1197 31.8198 20.5412 31.8198 19.7314C31.8198 18.9601 32.0522 18.4202 32.4781 18.1117C32.904 17.8032 33.4848 17.5718 34.1431 17.4561C34.2592 17.4561 34.3754 17.4561 34.4528 17.4176C34.6077 17.379 34.7239 17.379 34.8788 17.3404C35.6532 17.2247 36.0404 16.9934 36.0404 16.6463C36.0404 16.3763 35.8855 16.1835 35.6144 16.1064C35.3821 16.0293 35.1111 15.9907 34.84 15.9907C34.6077 15.9907 34.3754 16.0293 34.1818 16.1064C33.9882 16.1835 33.8333 16.3378 33.7559 16.5306H32.0522C32.1296 15.9907 32.3619 15.4894 32.7878 15.1423C33.2525 14.7181 33.9495 14.5253 34.84 14.5253C35.8468 14.5253 36.5825 14.6795 37.0858 15.0266C37.5892 15.3737 37.8602 15.875 37.8602 16.5306V18.9987C37.8602 19.7314 37.7441 20.2713 37.473 20.6955C37.2407 21.0811 36.9309 21.3896 36.5437 21.5824ZM29.8838 18.3045C29.8838 17.6104 29.7676 17.0705 29.4966 16.6848C29.2256 16.2992 28.8384 16.1064 28.335 16.1064C27.8703 16.1064 27.4831 16.2992 27.2121 16.6848C26.9798 17.0319 26.8249 17.5718 26.8249 18.3045C26.8249 18.9987 26.941 19.5 27.2121 19.8471C27.4831 20.2327 27.8703 20.4255 28.3737 20.4255C28.7996 20.4255 29.2256 20.2327 29.4579 19.8471C29.7289 19.4614 29.8838 18.9601 29.8838 18.3045ZM26.8249 23.5878C26.8249 23.8192 26.7474 24.0505 26.5538 24.2434C26.399 24.4362 26.1666 24.5133 25.8956 24.5133H25.005V17.8032C25.005 16.5306 25.3535 15.6822 26.0892 15.2194C26.7862 14.7567 27.638 14.5253 28.4511 14.5253C28.9158 14.5253 29.3804 14.6024 29.8064 14.7952C30.2323 14.9495 30.5808 15.1809 30.8905 15.5279C31.4326 16.2221 31.7037 17.1476 31.7037 18.2274C31.7037 19.3457 31.4326 20.2713 30.8905 20.9654C30.3485 21.6596 29.6902 22.0067 28.8384 22.0067C28.4511 22.0067 28.0252 21.9295 27.6767 21.7753C27.3283 21.5824 27.0185 21.3125 26.8249 20.9269V23.5878ZM23.0303 18.266C22.6818 18.4202 22.3333 18.5359 21.9848 18.613L21.3653 18.7287C21.0555 18.8059 20.8232 18.9215 20.6683 19.0758C20.5522 19.2686 20.4747 19.4614 20.4747 19.6543C20.4747 19.8856 20.5522 20.117 20.707 20.3098C20.8619 20.4641 21.0942 20.5412 21.404 20.5412C21.9074 20.5412 22.2946 20.387 22.5656 20.117C22.8367 19.8471 22.9916 19.4229 22.9916 18.9215L23.0303 18.266ZM23.4562 21.5824C23.069 21.7753 22.6818 21.891 22.2559 21.9295C21.9074 21.9681 21.5202 22.0067 21.133 22.0067C20.5134 22.0067 19.9326 21.8138 19.468 21.4668C19.0033 21.1197 18.7323 20.5412 18.7323 19.7314C18.7323 18.9601 18.9646 18.4202 19.3905 18.1117C19.8165 17.8032 20.3973 17.5718 21.0555 17.4561C21.1717 17.4561 21.2878 17.4561 21.3653 17.4176C21.4815 17.379 21.6363 17.379 21.7912 17.3404C22.5656 17.2247 22.9528 16.9934 22.9528 16.6463C22.9528 16.3763 22.7979 16.1835 22.5269 16.1064C22.2946 16.0293 22.0235 15.9907 21.7525 15.9907C21.5202 15.9907 21.2879 16.0293 21.0942 16.1064C20.9006 16.1835 20.7458 16.3378 20.6683 16.5306H18.8872C18.9646 15.9907 19.1969 15.4894 19.6229 15.1423C20.0875 14.7181 20.7845 14.5253 21.6751 14.5253C22.6818 14.5253 23.4175 14.6795 23.9208 15.0266C24.4242 15.3737 24.6953 15.875 24.6953 16.5306V18.9987C24.6953 19.7314 24.5791 20.2713 24.3081 20.6955C24.1532 21.0811 23.8434 21.3896 23.4562 21.5824ZM13.7373 23.5878C13.7373 23.8192 13.6599 24.0505 13.4663 24.2434C13.3114 24.4362 13.0791 24.5133 12.8081 24.5133H11.9175V17.8032C11.9175 16.5306 12.266 15.6822 13.0017 15.2194C13.6986 14.7567 14.5505 14.5253 15.3636 14.5253C15.8283 14.5253 16.2929 14.6024 16.7188 14.7952C17.1448 14.9495 17.4932 15.1809 17.803 15.5279C18.3451 16.2221 18.6161 17.1476 18.6161 18.2274C18.6161 19.3457 18.3451 20.2713 17.803 20.9654C17.2609 21.6596 16.6027 22.0067 15.7508 22.0067C15.3636 22.0067 14.9377 21.9295 14.5892 21.7753C14.2407 21.5824 13.9309 21.3125 13.7373 20.9269V23.5878ZM16.7575 18.3045C16.7575 17.6104 16.6414 17.0705 16.3703 16.6848C16.0993 16.2992 15.7121 16.1064 15.2087 16.1064C14.7441 16.1064 14.3569 16.2992 14.0858 16.6848C13.8535 17.0319 13.6986 17.5718 13.6986 18.3045C13.6986 18.9987 13.8148 19.5 14.0858 19.8471C14.3569 20.2327 14.7441 20.4255 15.2474 20.4255C15.6734 20.4255 16.0993 20.2327 16.3316 19.8471C16.6414 19.4614 16.7575 18.9601 16.7575 18.3045Z" fill="url(#paint0_linear_209_6341)"/>
<defs>
<linearGradient id="paint0_linear_209_6341" x1="19.4718" y1="30.8244" x2="38.7204" y2="7.79174" gradientUnits="userSpaceOnUse">
<stop stop-color="#E14A55"/>
<stop offset="1" stop-color="#8E278F"/>
</linearGradient>
</defs>
</svg>
