<svg width="60" height="40" viewBox="0 0 60 40" fill="none" xmlns="http://www.w3.org/2000/svg">
<rect x="0.5" y="0.5" width="59" height="39" rx="7.5" fill="white" fill-opacity="0.2"/>
<rect x="0.5" y="0.5" width="59" height="39" rx="7.5" stroke="#CCCCCC"/>
<path fill-rule="evenodd" clip-rule="evenodd" d="M34.6646 16.1789L36.2803 8.13366C36.4747 7.2311 35.9401 6.3216 35.0445 6.05778C34.0447 5.80784 33.038 6.39103 32.7812 7.3769L31.3172 12.389L30.1632 7.45327C30.073 6.99505 29.7953 6.58543 29.3995 6.32161C29.0038 6.05778 28.5108 5.96753 28.0457 6.06472C27.1292 6.25912 26.5322 7.3283 26.7613 8.30029L27.4421 13.8912C26.8506 13.3016 26.1598 13.12 25.3593 13.5837L25.2552 13.6532C24.5256 14.15 24.3772 15.1653 24.8459 16.09C24.4579 16.1118 24.0786 16.2736 23.7901 16.5691L23.7207 16.6455C23.0472 17.3397 23.1792 18.5131 24.0192 19.3531L24.7017 20.0333C24.7784 23.1774 27.3359 25.3794 30.3513 25.3794C30.387 25.3794 30.4214 25.3745 30.454 25.3654C34.5386 25.3246 36.3337 22.8918 36.6413 19.2004C36.7385 18.034 36.5233 17.2356 36.072 16.7565C35.8221 16.4927 35.5582 16.3678 35.3569 16.34L34.6646 16.1789ZM30.206 24.6277C30.2261 24.6244 30.2468 24.6227 30.2679 24.6227C34.0308 24.6574 35.6138 22.5468 35.8984 19.1448C35.9817 18.1729 35.8151 17.5827 35.5235 17.2703C35.4471 17.1939 35.3708 17.1384 35.3013 17.1106L35.218 17.0829L30.8441 16.0623C30.8312 16.058 30.8078 16.0537 30.7753 16.0478C30.7552 16.0441 30.7318 16.0398 30.7052 16.0345C30.4692 15.9928 30.2262 15.9859 30.004 16.0345C29.6638 16.1109 29.4486 16.2983 29.3375 16.6593C29.1898 17.1518 29.2022 17.5279 29.5152 17.8291C29.594 17.8581 29.6579 17.9104 29.7008 17.9758C29.9196 18.1205 30.2269 18.2467 30.6428 18.3603L33.524 19.006C34.0031 19.1171 33.8503 19.8322 33.3713 19.7419L33.281 19.728C32.92 19.6933 32.5104 19.7211 32.1355 19.86C31.4342 20.1238 30.9968 20.7278 30.9413 21.8525C30.9274 22.0608 30.7538 22.2135 30.5456 22.2066C30.3373 22.1927 30.1776 22.0191 30.1915 21.8109C30.247 20.5681 30.733 19.7558 31.5106 19.3184L30.4623 19.0754C30.1007 18.9774 29.7959 18.8616 29.5425 18.7295C29.4209 18.9202 29.2624 19.0858 29.0737 19.2143L28.9903 19.2698C28.9425 19.3022 28.8936 19.3317 28.8438 19.3585C29.1804 19.9883 29.0916 20.7844 28.5737 21.3249L28.4973 21.4013C27.8447 22.0678 26.7824 22.0816 26.109 21.436L25.5478 20.8767C25.9959 23.0777 27.9252 24.5669 30.206 24.6277ZM28.9429 18.2985C28.8745 18.4176 28.7792 18.5211 28.664 18.5964L28.5807 18.645C28.1503 18.9366 27.5671 18.8255 27.2755 18.395L25.637 15.9581C25.1927 15.2778 25.2482 14.5696 25.6787 14.2711L25.755 14.2155C26.3104 13.8962 26.7756 14.1391 27.2547 14.8404L27.6449 15.4228C27.6619 15.4607 27.6852 15.4952 27.7135 15.5251L28.5422 16.7619C28.4295 17.356 28.5314 17.8771 28.9429 18.2985ZM33.9335 16.0087L31.0316 15.3333C31.027 15.3322 31.0214 15.3307 31.0147 15.3289C30.9804 15.3197 30.9185 15.3033 30.8372 15.2916C30.5109 15.2361 30.1707 15.2291 29.8374 15.2986C29.4394 15.3886 29.1061 15.5885 28.875 15.9094L28.3456 15.1194L27.5041 8.18226L27.4972 8.14061C27.3514 7.55742 27.7124 6.9048 28.1984 6.80066C28.4692 6.74511 28.7538 6.79371 28.983 6.94645C29.2121 7.09919 29.3717 7.33525 29.4273 7.60601L30.8998 13.895C30.9076 14.0518 31.0106 14.1922 31.1704 14.2363C31.3718 14.2919 31.5801 14.1808 31.6356 13.9795L33.5032 7.57824C33.6629 6.98811 34.26 6.63403 34.8431 6.77983C35.343 6.93257 35.6554 7.45327 35.5444 7.98092L33.9335 16.0087ZM26.6506 18.8186C26.9862 19.3087 27.5296 19.5685 28.079 19.5588C28.3786 19.9224 28.3626 20.4603 28.0252 20.8042L27.9558 20.8805C27.5947 21.2485 27.0046 21.2555 26.6366 20.8944L24.5538 18.8324C23.9776 18.2562 23.9012 17.548 24.2622 17.1731L24.3317 17.0968C24.6198 16.7952 25.0891 16.7588 25.4273 16.9939L26.6506 18.8186Z" fill="#F884A1"/>
<path d="M19.4717 34.3772C20.652 34.3772 21.5546 33.5858 21.5546 32.4263C21.5546 31.3502 20.7909 30.885 19.8536 30.6073C19.2565 30.4338 18.8816 30.3018 18.8816 29.8783C18.8816 29.5243 19.1385 29.2465 19.5481 29.2465C19.8952 29.2465 20.1521 29.4479 20.3396 29.7534L21.3185 29.1355C21.013 28.462 20.3257 28.1149 19.5828 28.1149C18.4026 28.1149 17.6527 28.9619 17.6527 29.9478C17.6527 30.7323 18.1248 31.3363 19.2843 31.6765C19.9161 31.857 20.3188 31.982 20.3188 32.4819C20.3188 32.954 19.9786 33.2456 19.4856 33.2456C18.958 33.2456 18.5553 32.9054 18.3123 32.5929L17.5 33.4052C17.9374 34.0023 18.6456 34.3772 19.4717 34.3772Z" fill="#F884A1"/>
<path d="M29.4274 28.1913V29.3021C28.7678 29.2743 28.2888 29.6076 28.2888 30.3435V30.7948C28.5526 30.5171 28.9275 30.3782 29.3927 30.3782V31.503C28.74 31.5169 28.2888 31.9334 28.2888 32.5166V34.2662H27.1085V30.2741C27.1085 29.1494 27.8167 28.1913 29.2538 28.1913H29.4274Z" fill="#F884A1"/>
<path d="M39.064 32.1209V31.0934C39.3278 31.3711 39.6958 31.5099 40.1679 31.5099V30.3921C39.5291 30.3782 39.064 29.9478 39.064 29.3785V28.7189H37.8837V32.1903C37.8837 33.315 38.5849 34.2731 40.029 34.2731H40.2026V33.1623C39.543 33.1831 39.064 32.8568 39.064 32.1209Z" fill="#F884A1"/>
<path fill-rule="evenodd" clip-rule="evenodd" d="M21.9779 32.1625C21.9779 33.3775 22.9915 34.3773 24.2412 34.3773C25.4909 34.3773 26.5045 33.3775 26.5045 32.1625C26.5045 30.9475 25.4909 29.9478 24.2412 29.9478C22.9915 29.9478 21.9779 30.9475 21.9779 32.1625ZM24.2409 33.2664C24.8449 33.2664 25.324 32.7874 25.324 32.1625C25.324 31.5377 24.8449 31.0586 24.2409 31.0586C23.6299 31.0586 23.1578 31.5377 23.1578 32.1625C23.1578 32.7943 23.6369 33.2664 24.2409 33.2664Z" fill="#F884A1"/>
<path d="M42.4034 33.5441C42.4034 33.9815 42.0424 34.3356 41.612 34.3356C41.1746 34.3356 40.8205 33.9815 40.8205 33.5441C40.8205 33.1068 41.1746 32.7527 41.612 32.7527C42.0494 32.7527 42.4034 33.1137 42.4034 33.5441Z" fill="#F884A1"/>
<path fill-rule="evenodd" clip-rule="evenodd" d="M29.7398 32.1625C29.7398 33.3775 30.7535 34.3773 32.0032 34.3773C33.2529 34.3773 34.2665 33.3775 34.2665 32.1625C34.2665 30.9475 33.2529 29.9478 32.0032 29.9478C30.7535 29.9478 29.7398 30.9475 29.7398 32.1625ZM32.0031 33.2664C32.614 33.2664 33.0861 32.7874 33.0861 32.1625C33.0861 31.5377 32.6071 31.0586 32.0031 31.0586C31.399 31.0586 30.92 31.5377 30.92 32.1625C30.92 32.7943 31.399 33.2664 32.0031 33.2664Z" fill="#F884A1"/>
<path d="M36.0507 30.0658V30.5448C36.2868 30.163 36.6686 29.9825 37.2032 30.0033V31.2669C36.4951 31.2669 36.0854 31.6557 36.0854 32.35V34.2662H34.9052V30.0658H36.0507Z" fill="#F884A1"/>
</svg>
